<?xml version="1.0" standalone="no"?>
<!DOCTYPE svg PUBLIC "-//W3C//DTD SVG 20010904//EN"
 "http://www.w3.org/TR/2001/REC-SVG-20010904/DTD/svg10.dtd">
<svg version="1.0" xmlns="http://www.w3.org/2000/svg"
 width="120.000000pt" height="120.000000pt" viewBox="0 0 120.000000 120.000000"
 preserveAspectRatio="xMidYMid meet">
<metadata>
Created by potrace 1.14, written by Peter Selinger 2001-2017
</metadata>
<g transform="translate(0.000000,120.000000) scale(0.100000,-0.100000)"
fill="#000000" stroke="none">
<path d="M496 1170 c-14 -17 -32 -53 -40 -80 -18 -61 -13 -191 10 -257 22 -63
21 -154 -2 -223 -27 -78 -40 -73 -63 25 -13 53 -50 100 -109 137 -48 29 -59
20 -57 -48 2 -48 -12 -132 -39 -234 -7 -27 -19 -124 -21 -165 -2 -82 27 -156
87 -214 79 -78 183 -111 333 -106 199 6 363 88 416 207 47 108 21 290 -60 416
-43 66 -62 115 -81 205 -11 57 -16 63 -36 49 -39 -25 -53 -125 -30 -205 24
-82 28 -137 15 -184 -15 -56 -34 -72 -57 -49 -14 14 -17 39 -19 149 -2 176 -7
192 -131 374 -22 33 -49 118 -55 178 -7 62 -24 69 -61 25z m-179 -687 c-3 -27
-6 -49 -6 -50 -1 -2 -8 -3 -17 -3 -12 0 -15 9 -13 43 3 51 6 57 26 57 12 0 14
-9 10 -47z m-16 -120 c3 -57 0 -86 -9 -95 -17 -17 -28 22 -23 90 1 26 31 30
32 5z"/>
<path d="M862 1027 c-16 -18 -19 -69 -5 -74 13 -5 46 64 37 78 -7 13 -20 11
-32 -4z"/>
<path d="M160 922 c0 -4 7 -17 15 -28 8 -12 12 -24 8 -27 -3 -4 2 -9 11 -13
28 -11 36 8 19 44 -9 19 -23 32 -34 32 -11 0 -19 -3 -19 -8z"/>
</g>
</svg>
