<svg aria-hidden="true" style="position: absolute; width: 0; height: 0; overflow: hidden;" version="1.1" xmlns="http://www.w3.org/2000/svg" xmlns:xlink="http://www.w3.org/1999/xlink">
<defs>
<symbol id="icon-advantages1" viewBox="0 0 32 32">
<path d="M8.26 23.273c1.588 0 10.776 0 12.362 0 0.061-1.41-0.040-3.749-0.907-4.862l-0.031-0.040-1.894-0.951c0.041-0.139 0.061-0.266 0.070-0.359 0.009-0.112-0.006-0.217-0.046-0.313-0.313-0.748-0.974-1.141-1.337-1.309 0.111-0.223 0.182-0.463 0.217-0.708 0.206-0.058 0.371-0.221 0.426-0.439l0.221-0.898c0.039-0.158 0.015-0.323-0.070-0.463-0.036-0.060-0.083-0.111-0.136-0.154 0.623-1.416-0.421-2.751-0.478-2.821-1.131-1.222-2.559-0.994-2.635-0.98-2.061 0.432-2.857 2.011-2.408 3.864-0.133 0.147-0.189 0.353-0.14 0.554l0.222 0.899c0.054 0.216 0.218 0.379 0.423 0.437 0.063 0.449 0.253 0.854 0.532 1.181v0.712c-2.958 1.515-1.084 0.548-3.454 1.748-0.005 0.022-1.112 1.2-0.948 4.689l0.010 0.213zM20.193 22.826h-2.035v-0.855l1.346-3.081c0.674 1.119 0.699 3.255 0.689 3.935zM17.416 17.023c-0.079 0.902-0.573 0.629-0.878 1.324-0.24-0.264-0.312-0.581-0.248-0.92 0.117-0.622-0.263-0.807-0.169-1.461l0.014-0.015v-0.002c0.008-0.009 0.083-0.098 0.105-0.126 0.805 0.351 1.192 1.003 1.177 1.2zM13.098 16.314c0.374 0.259 0.825 0.412 1.31 0.412 0.457 0 0.891-0.133 1.263-0.378 0.052 0.514 0.253 0.617 0.181 0.995-0.013 0.070-0.021 0.139-0.025 0.207l-1.386 1.562-1.771-1.997 0.428-0.223v-0.579zM12.541 14.403v-0.866c0-0.319 0-1.584 0-1.521 0.216-0.399 0.51-0.688 0.875-0.861 0.979 0.554 2.105 1.38 2.86 2.211-0.001 1.059 0.003 1.062-0.004 1.149l-0 0.005c-0.059 0.962-0.85 1.759-1.864 1.759-0.986 0-1.804-0.774-1.863-1.768-0.003-0.036-0.004-0.071-0.004-0.108zM12.265 17.332l2.177 2.454 1.461-1.647c0.033 0.096 0.080 0.187 0.134 0.275l-1.595 1.995-2.379-2.975 0.202-0.101zM16.722 14.043v-0.691c0.020-0.022 0.186-0.213 0.166-0.191 0.009 0.35 0.047-0.063-0.166 0.882zM14.105 9.416c0.088 0.005 1.276-0.181 2.215 0.833 0.037 0.046 0.801 1.031 0.494 2.108-0.105-0.479-0.288-1.093-0.578-1.387l-0.316 0.315c0.286 0.289 0.474 1.171 0.545 1.628-1.311-1.372-3.002-2.24-3.025-2.255-0.085 0.053-0.8 0.189-1.32 1.199l-0.025 0.048v0.742c-0.022 0-0.088 0.001-0.066 0.001-0.33-1.594 0.302-2.861 2.076-3.233zM11.983 13.109l0.112 0.456v0.479l-0.187-0.757c-0.027-0.113 0.056-0.156 0.074-0.178zM11.655 17.638l2.787 3.485 1.885-2.358c0.205 0.184 0.304 0.21 0.739 0.433l-0.147-0.497c-0.037-0.126 0.11-0.329 0.199-0.422 0.199-0.108 0.364-0.261 0.488-0.451l1.538 0.772-1.431 3.277v0.948h-6.543v-0.949l-1.432-3.277 1.917-0.962zM9.379 18.891l1.346 3.080v0.855h-2.035c-0.010-0.68 0.015-2.815 0.689-3.934z"></path>
<path stroke-linejoin="miter" stroke-linecap="butt" stroke-miterlimit="4" stroke-width="0.6154" d="M31.316 4.615v-4.308h-30.701v31.385h30.701v-4.308"></path>
</symbol>
<symbol id="icon-advantages2" viewBox="0 0 32 32">
<path d="M20.714 8.558h-7.116c-0.463 0-0.84 0.377-0.84 0.84v2.946l-5.287 2.219c-0.060 0.025-0.101 0.082-0.105 0.146s0.027 0.127 0.083 0.16l0.674 0.403v4.3c-0.345 0.079-0.603 0.387-0.603 0.756v0.414c0 0.095 0.077 0.172 0.172 0.172h1.207c0.095 0 0.172-0.077 0.172-0.172v-0.414c0-0.369-0.259-0.677-0.604-0.756v-4.094l0.533 0.319c-0.016 0.123-0.002-0.214-0.008 2.002 0 0.729 1.866 1.119 3.765 1.141v3.356c0 0.173 0.053 0.335 0.144 0.468 0.151 0.223 0.407 0.37 0.696 0.37h7.116c0.463 0 0.839-0.377 0.839-0.839 0 0.023-0.001-0.711 0-12.898 0-0.457-0.378-0.84-0.839-0.84zM8.727 20.328v0.242h-0.863v-0.242c0-0.239 0.193-0.433 0.43-0.433 0.239 0 0.433 0.194 0.433 0.433zM20.714 22.79h-7.116c-0.171 0-0.322-0.086-0.411-0.218-0.053-0.079-0.085-0.174-0.085-0.276v-1.163h8.105v1.164c0 0.27-0.225 0.494-0.494 0.494zM21.207 20.788h-8.105v-1.847c0.927-0.011 3.767-0.215 3.767-1.142-0.001-1.392 0.002-1.957-0.004-2.005l1.546-0.926c0.056-0.033 0.088-0.095 0.083-0.16s-0.045-0.121-0.105-0.146l-5.286-2.219v-1.438h8.105v9.883zM12.93 16.656c-0.955 0-2.794 0.123-3.592 0.645 0.005-1.595-0.055-1.491 0.141-1.627 0.496-0.365 1.915-0.62 3.451-0.62 0.67 0 3.595 0.184 3.595 0.803v1.444c-0.806-0.526-2.636-0.645-3.595-0.645zM13.102 9.398c0-0.273 0.222-0.495 0.495-0.495h7.116c0.273 0 0.494 0.225 0.494 0.495v1.163h-8.105v-1.163zM12.93 12.644l5.012 2.104-1.242 0.743c-0.66-0.655-2.844-0.782-3.77-0.782-0.927 0-3.111 0.127-3.77 0.782l-1.242-0.743 5.012-2.104zM9.338 17.799c0-0.279 1.234-0.799 3.592-0.799 2.36 0 3.595 0.52 3.595 0.799s-1.235 0.799-3.595 0.799c-2.359 0-3.592-0.52-3.592-0.799z"></path>
<path d="M17.155 21.392c-0.314 0-0.569 0.255-0.569 0.569s0.255 0.57 0.569 0.57c0.314 0 0.57-0.256 0.57-0.57s-0.255-0.569-0.57-0.569zM17.155 22.186c-0.124 0-0.225-0.101-0.225-0.225s0.101-0.225 0.225-0.225c0.124 0 0.225 0.101 0.225 0.225s-0.101 0.225-0.225 0.225z"></path>
<path d="M17.812 9.56h-1.313v0.344h1.313v-0.344z"></path>
<path stroke-linejoin="miter" stroke-linecap="butt" stroke-miterlimit="4" stroke-width="0.6154" d="M31.385 4.615v-4.308h-30.769v31.385h30.769v-4.308"></path>
</symbol>
<symbol id="icon-advantages3" viewBox="0 0 32 32">
<path d="M8.25 14.958c0 0.165-0.25 0.165-0.25 0 0-3.502 2.84-6.342 6.343-6.342 3.504 0 6.343 2.84 6.343 6.343 0 0.165-0.249 0.165-0.249 0 0-2.367-3.89-2.369-3.89 0 0 0.165-0.256 0.165-0.256 0 0-2.361-3.896-2.361-3.896 0 0 0.165-0.256 0.165-0.256 0 0-2.357-3.888-2.373-3.888 0zM12.161 14.039c0.067-1.363 0.281-2.584 0.593-3.517 0.249-0.741 0.563-1.304 0.919-1.62-2.674 0.292-4.839 2.319-5.323 4.949 0.921-1.328 3.047-1.222 3.811 0.189zM16.271 13.977c-0.069-1.31-0.277-2.482-0.576-3.376-0.773-2.313-1.931-2.313-2.704 0-0.299 0.894-0.506 2.066-0.576 3.376 0.831-1.412 3.026-1.412 3.857 0zM20.335 13.85c-0.482-2.629-2.647-4.657-5.323-4.949 0.358 0.316 0.671 0.879 0.919 1.62 0.311 0.933 0.526 2.155 0.593 3.517 0.768-1.418 2.9-1.502 3.811-0.189z"></path>
<path d="M13.51 17.86v-1.288c-0.232 0.154-0.415 0.392-0.415 0.683 0 0.283 0.186 0.47 0.415 0.605zM13.76 18.26c-0.445-0.204-0.913-0.442-0.913-1.005 0-0.581 0.442-0.872 0.913-1.089v2.094z"></path>
<path d="M15.175 19.803v1.303c0.235-0.156 0.419-0.395 0.419-0.686 0-0.286-0.189-0.479-0.419-0.617zM14.926 19.402c0.446 0.207 0.918 0.452 0.918 1.018 0 0.582-0.445 0.873-0.918 1.089v-2.107z"></path>
<path d="M15.175 15.106c1.024 0.237 2.077 1.003 2.077 2.149 0 0.981-1.658 0.945-1.658 0 0-0.292-0.184-0.532-0.419-0.686v1.833c0.948 0.31 2.080 0.865 2.080 2.018 0 1.147-1.053 1.912-2.080 2.147-0.005 1.092-1.662 1.090-1.665-0.001-0.584-0.135-1.092-0.407-1.458-0.768-0.385-0.38-0.612-0.858-0.612-1.378 0-0.966 1.656-0.966 1.656 0 0 0.289 0.183 0.527 0.415 0.681v-1.831c-0.94-0.304-2.078-0.876-2.078-2.018 0-1.147 1.053-1.912 2.078-2.147 0.005-1.092 1.662-1.090 1.665 0.002zM13.76 15.109v0.199c-0.975 0.193-2.080 0.818-2.080 1.944 0 1.083 1.213 1.568 2.080 1.836v2.42c-0.469-0.214-0.913-0.503-0.913-1.087 0-0.638-1.159-0.638-1.159 0 0 0.451 0.201 0.867 0.539 1.199 0.43 0.425 0.951 0.627 1.533 0.743v0.201c0 0.768 1.166 0.768 1.166 0v-0.199c0.978-0.195 2.078-0.819 2.078-1.944 0-1.093-1.21-1.563-2.078-1.837v-2.418c0.47 0.214 0.918 0.503 0.918 1.090 0 0.621 1.157 0.647 1.157 0 0-1.125-1.099-1.75-2.075-1.945v-0.201c0-0.768-1.166-0.768-1.166 0z"></path>
<path stroke-linejoin="miter" stroke-linecap="butt" stroke-miterlimit="4" stroke-width="0.6154" d="M31.385 4.615v-4.308h-30.769v31.385h30.769v-4.308"></path>
</symbol>
<symbol  id="icon-arrow-right" viewBox="0 0 27 16">
<path d="M1 7C0.447715 7 0 7.44772 0 8C0 8.55228 0.447715 9 1 9V7ZM26.7071 8.70711C27.0976 8.31658 27.0976 7.68342 26.7071 7.29289L20.3431 0.928932C19.9526 0.538408 19.3195 0.538408 18.9289 0.928932C18.5384 1.31946 18.5384 1.95262 18.9289 2.34315L24.5858 8L18.9289 13.6569C18.5384 14.0474 18.5384 14.6805 18.9289 15.0711C19.3195 15.4616 19.9526 15.4616 20.3431 15.0711L26.7071 8.70711ZM1 9H26V7H1V9Z"/>
</symbol>

<symbol id="icon-arrow-left" viewBox="0 0 27 16" >
<path d="M26 7C26.5523 7 27 7.44772 27 8C27 8.55228 26.5523 9 26 9V7ZM0.292892 8.70711C-0.0976315 8.31658 -0.0976315 7.68342 0.292892 7.29289L6.65685 0.928932C7.04738 0.538408 7.68054 0.538408 8.07107 0.928932C8.46159 1.31946 8.46159 1.95262 8.07107 2.34315L2.41421 8L8.07107 13.6569C8.46159 14.0474 8.46159 14.6805 8.07107 15.0711C7.68054 15.4616 7.04738 15.4616 6.65685 15.0711L0.292892 8.70711ZM26 9H1V7H26V9Z"/>
</symbol>

<symbol id="icon-facebook" viewBox="0 0 32 32">
<path d="M28.166 0.549h-24.332c-0.88 0-1.724 0.347-2.346 0.963s-0.972 1.453-0.972 2.326v24.12c0 0.872 0.35 1.709 0.972 2.326s1.466 0.963 2.346 0.963h9.487v-10.437h-4.355v-4.912h4.355v-3.744c0-4.259 2.558-6.611 6.475-6.611 1.876 0 3.838 0.332 3.838 0.332v4.18h-2.161c-2.13 0-2.794 1.31-2.794 2.654v3.19h4.754l-0.76 4.912h-3.994v10.437h9.487c0.88 0 1.724-0.347 2.346-0.963s0.972-1.453 0.972-2.326v-24.12c0-0.872-0.35-1.709-0.972-2.326s-1.466-0.963-2.346-0.963z"></path>
</symbol>
<symbol id="icon-how-we1" viewBox="0 0 32 32">
<path d="M29.071 6.087c0-0.001-0.001-0.001-0.001-0.002-0.006-0.014-0.013-0.027-0.021-0.039-0.001-0.001-0.002-0.002-0.002-0.003-0.009-0.013-0.018-0.025-0.030-0.037l-4.231-4.188c-0.011-0.011-0.023-0.020-0.036-0.028-0.002-0.002-0.006-0.003-0.008-0.005-0.010-0.006-0.021-0.012-0.032-0.017-0.003-0.002-0.006-0.003-0.009-0.004-0.028-0.011-0.057-0.017-0.087-0.018-0.002 0-0.003-0-0.005-0h-18.639c-0.138 0-0.25 0.111-0.25 0.248v25.546c0 0.016 0.002 0.032 0.005 0.049 0.002 0.007 0.004 0.013 0.006 0.020 0.003 0.009 0.005 0.018 0.008 0.026s0.008 0.015 0.012 0.022c0.004 0.006 0.007 0.014 0.011 0.020 0.009 0.012 0.018 0.024 0.029 0.035 0.001 0.001 0.001 0.002 0.002 0.003l1.906 1.886c0.098 0.097 0.256 0.097 0.354 0l1.729-1.711 1.729 1.711c0.049 0.049 0.113 0.073 0.177 0.073s0.128-0.024 0.177-0.073l1.729-1.711 1.729 1.711c0.098 0.097 0.256 0.097 0.354 0l1.729-1.711 1.729 1.711c0.098 0.097 0.256 0.097 0.353 0l1.73-1.711 1.729 1.711c0.049 0.049 0.113 0.073 0.177 0.073s0.128-0.024 0.177-0.073l1.729-1.711 1.73 1.711c0.097 0.097 0.256 0.097 0.353 0l1.906-1.886c0.004-0.004 0.006-0.008 0.010-0.012 0.007-0.008 0.015-0.016 0.021-0.025s0.010-0.018 0.014-0.026c0.003-0.006 0.006-0.011 0.008-0.016 0.005-0.011 0.008-0.023 0.011-0.034 0.001-0.004 0.003-0.008 0.004-0.012 0.003-0.017 0.005-0.033 0.005-0.051v-21.356c-0.001-0.032-0.007-0.065-0.020-0.095zM24.859 2.591l3.377 3.343h-3.377v-3.343zM28.59 27.436l-1.655 1.639-1.73-1.711c-0.097-0.096-0.256-0.096-0.353 0l-1.729 1.711-1.729-1.711c-0.098-0.096-0.256-0.096-0.354 0l-1.73 1.711-1.728-1.71c0-0-0-0.001-0-0.001-0.049-0.048-0.113-0.072-0.177-0.072s-0.128 0.024-0.177 0.072c-0 0-0 0-0 0l-1.728 1.711-1.729-1.711c-0.098-0.096-0.256-0.096-0.354 0l-1.729 1.711-1.729-1.711c-0.098-0.096-0.256-0.096-0.354 0l-1.729 1.711-1.655-1.639v-25.196h18.138v3.941c0 0.137 0.112 0.248 0.25 0.248h3.98l0 21.007z"></path>
<path d="M8.085 4.583h8.19c0.138 0 0.25-0.111 0.25-0.248s-0.112-0.248-0.25-0.248h-8.19c-0.138 0-0.25 0.111-0.25 0.248s0.112 0.248 0.25 0.248z"></path>
<path d="M8.085 6.114h13.134c0.138 0 0.25-0.111 0.25-0.248s-0.112-0.248-0.25-0.248h-13.134c-0.138 0-0.25 0.111-0.25 0.248s0.112 0.248 0.25 0.248z"></path>
<path d="M7.835 7.488v8.017c0 0.137 0.112 0.248 0.25 0.248h18.639c0.138 0 0.25-0.111 0.25-0.248v-8.017c0-0.137-0.112-0.248-0.25-0.248h-18.639c-0.138 0-0.25 0.111-0.25 0.248zM13.363 7.736h13.111v2.131h-13.111v-2.131zM13.363 10.362h13.111v2.13h-13.111v-2.13zM13.363 12.987h13.111v2.271h-13.111v-2.271zM8.336 7.736h4.527v2.131h-4.527v-2.131zM8.336 10.362h4.527v2.13h-4.527v-2.13zM8.336 12.987h4.527v2.271h-4.527v-2.271z"></path>
<path d="M26.725 16.867h-18.639c-0.138 0-0.25 0.111-0.25 0.248v8.017c0 0.137 0.112 0.247 0.25 0.247s0.25-0.111 0.25-0.247v-2.518h4.527v2.518c0 0.137 0.112 0.247 0.25 0.247s0.25-0.111 0.25-0.247v-2.518h13.111v2.518c0 0.137 0.112 0.247 0.25 0.247s0.25-0.111 0.25-0.247v-8.017c0.001-0.137-0.111-0.248-0.249-0.248zM12.863 22.118h-4.527v-2.13h4.527v2.13zM12.863 19.493h-4.527v-2.13h4.527v2.13zM26.474 22.118h-13.111v-2.13h13.111v2.13zM26.474 19.493h-13.111v-2.13h13.111v2.13z"></path>
<path d="M4.535 1.745c-0.138 0-0.25 0.111-0.25 0.248v25.546c0 0.136 0.112 0.247 0.25 0.247s0.25-0.111 0.25-0.247v-25.546c0-0.137-0.112-0.248-0.25-0.248z"></path>
<path d="M3.159 1.745c-0.138 0-0.25 0.111-0.25 0.248v25.546c0 0.136 0.112 0.247 0.25 0.247s0.25-0.111 0.25-0.247v-25.546c0-0.137-0.112-0.248-0.25-0.248z"></path>
</symbol>
<symbol id="icon-how-we2" viewBox="0 0 32 32">
<path d="M28.090 2.327h-13.424c-0.874 0-1.585 0.707-1.585 1.576v5.526l-9.973 4.162c-0.113 0.047-0.19 0.153-0.198 0.275s0.052 0.238 0.157 0.3l1.272 0.757v8.066c-0.65 0.148-1.138 0.726-1.138 1.419v0.778c0 0.178 0.145 0.323 0.325 0.323h2.277c0.179 0 0.325-0.145 0.325-0.323v-0.778c0-0.692-0.488-1.27-1.139-1.418v-7.681l1.006 0.599c-0.031 0.231-0.004-0.402-0.014 3.755 0 1.367 3.52 2.099 7.102 2.141v6.295c0 0.325 0.1 0.628 0.271 0.879 0.285 0.419 0.767 0.695 1.313 0.695h13.424c0.873 0 1.583-0.706 1.583-1.574 0 0.043-0.002-1.333 0-24.195 0-0.857-0.713-1.576-1.582-1.576zM5.478 24.408v0.455h-1.628v-0.455c0-0.447 0.364-0.812 0.812-0.812 0.45 0 0.816 0.364 0.816 0.812zM28.090 29.025h-13.424c-0.322 0-0.607-0.162-0.775-0.408-0.101-0.148-0.16-0.327-0.16-0.519v-2.182h15.29v2.183c0 0.506-0.424 0.926-0.931 0.926zM29.021 25.27h-15.291v-3.464c1.749-0.020 7.106-0.403 7.106-2.143-0.002-2.612 0.005-3.671-0.008-3.76l2.916-1.737c0.105-0.063 0.166-0.179 0.157-0.3s-0.085-0.228-0.198-0.275l-9.973-4.162v-2.697h15.291v18.539zM13.406 17.519c-1.801 0-5.27 0.231-6.777 1.21 0.010-2.993-0.104-2.798 0.266-3.052 0.936-0.685 3.613-1.164 6.511-1.164 1.264 0 6.781 0.345 6.781 1.507v2.709c-1.521-0.988-4.972-1.21-6.781-1.21zM13.731 3.903c0-0.512 0.419-0.929 0.934-0.929h13.424c0.515 0 0.932 0.422 0.932 0.928v2.182h-15.29v-2.182zM13.406 9.994l9.455 3.946-2.343 1.394c-1.246-1.228-5.366-1.466-7.112-1.466-1.749 0-5.869 0.239-7.112 1.467l-2.343-1.394 9.455-3.946zM6.629 19.664c0-0.523 2.328-1.498 6.777-1.498 4.452 0 6.781 0.976 6.781 1.498s-2.329 1.499-6.781 1.499c-4.449 0-6.777-0.976-6.777-1.499z"></path>
<path d="M21.377 26.403c-0.592 0-1.074 0.479-1.074 1.068s0.482 1.069 1.074 1.069c0.592 0 1.074-0.479 1.074-1.069s-0.482-1.068-1.074-1.068zM21.377 27.894c-0.234 0-0.425-0.19-0.425-0.423s0.191-0.422 0.425-0.422c0.234 0 0.425 0.189 0.425 0.422s-0.191 0.423-0.425 0.423z"></path>
<path d="M22.616 4.207h-2.478v0.646h2.478v-0.646z"></path>
</symbol>
<symbol id="icon-how-we3" viewBox="0 0 32 32">
<path d="M14.717 9.194h-8.443v0.636h8.443v-0.636z"></path>
<path d="M14.717 11.566h-7.179v0.636h7.179v-0.636z"></path>
<path d="M14.717 13.939h-8.443v0.636h8.443v-0.636z"></path>
<path d="M14.717 16.311h-7.179v0.636h7.179v-0.636z"></path>
<path d="M14.717 18.683h-8.443v0.636h8.443v-0.636z"></path>
<path d="M14.717 21.055h-7.179v0.636h7.179v-0.636z"></path>
<path d="M26.308 9.194h-8.443v0.636h8.443v-0.636z"></path>
<path d="M25.043 11.566h-7.179v0.636h7.179v-0.636z"></path>
<path d="M26.308 13.939h-8.443v0.636h8.443v-0.636z"></path>
<path d="M25.043 16.311h-7.179v0.636h7.179v-0.636z"></path>
<path d="M26.308 18.683h-8.443v0.636h8.443v-0.636z"></path>
<path d="M25.043 21.055h-7.179v0.636h7.179v-0.636z"></path>
<path d="M29.357 8.47h-1.159v-1.752c0-0.176-0.142-0.318-0.316-0.318h-9.449c-0.922 0-1.721 0.502-2.141 1.253-0.419-0.751-1.219-1.253-2.141-1.253h-9.449c-0.175 0-0.316 0.143-0.316 0.318v1.752h-1.159c-0.175 0-0.316 0.143-0.316 0.318v17.076c0 0.176 0.142 0.318 0.316 0.318 3.174 0 22.946 0 26.131 0 0.174 0 0.316-0.142 0.316-0.318v-17.076c0-0.176-0.142-0.318-0.316-0.318zM18.432 7.036h9.133c0 2.849 0 10.353 0 17.038h-9.808c-0.435 0-0.869 0.185-1.151 0.424v-15.629c0-1.016 0.808-1.832 1.825-1.832zM5.016 7.036h9.133c0.988 0 1.788 0.774 1.821 1.762 0 0.014 0.002 0.057 0.004 0.070v15.628c-0.28-0.238-0.71-0.423-1.147-0.423h-9.812c0-6.683 0-14.19 0-17.038zM3.541 9.106h0.843v15.286c0 0.176 0.142 0.318 0.316 0.318h10.128c0.482 0 0.948 0.318 1.097 0.835h-12.384v-16.439zM29.041 25.546h-12.383c0.15-0.52 0.611-0.835 1.101-0.835h10.124c0.174 0 0.316-0.142 0.316-0.318v-15.286h0.843v16.439z"></path>
</symbol>
<symbol id="icon-how-we4" viewBox="0 0 32 32">
<path d="M4.055 13.287v2.471c0 0.133 0.060 0.258 0.164 0.34 1.677 1.329 3.78 2.061 5.924 2.061 0.642 0 1.284-0.068 1.912-0.195 1.338 0.596 2.763 0.901 4.237 0.901 1.479 0 2.904-0.305 4.237-0.901 2.678 0.545 5.532-0.040 7.835-1.866 0.104-0.082 0.164-0.208 0.164-0.34v-2.471c0-0.363-0.179-0.693-0.498-0.896l-3.351-1.899c0.733-0.937 1.279-2.271 1.374-3.415 0.278-1.969-1.315-4.055-3.609-4.055-0.965 0-1.881 0.4-2.554 1.071-0.023 0.023-0.050 0.043-0.072 0.067-0.021 0.022-0.038 0.047-0.058 0.070-0.013 0.015-0.025 0.031-0.038 0.046-0.656-1.204-1.916-1.948-3.4-1.948-0.144 0-0.286 0.010-0.426 0.024-0.009-0.001-0.016-0.005-0.024-0.005-0.080 0-0.248 0.021-0.339 0.047-0.013 0.004-0.023 0.013-0.036 0.018-1.109 0.226-2.048 0.902-2.611 1.882-0.677-0.795-1.672-1.272-2.754-1.272-3.386 0-4.888 4.025-2.216 7.489l-3.382 1.891c-0.3 0.191-0.479 0.522-0.479 0.885zM20.52 17.013c-0.073 0.036-0.145 0.074-0.218 0.107l-0 0c-0.001 0-0.001 0.001-0.002 0.001-1.258 0.582-2.607 0.878-4.009 0.878-1.398 0-2.747-0.295-4.011-0.879-0.615-0.282-1.21-0.64-1.772-1.065v-2.505c0-0.085 0.041-0.161 0.089-0.193l3.935-2.203c0.49 0.419 1.115 0.726 1.763 0.726 0.624 0 1.299-0.312 1.778-0.736l3.888 2.199c0.072 0.046 0.113 0.122 0.113 0.207v2.504c-0.495 0.375-1.016 0.694-1.554 0.958zM27.588 13.133c0.051 0.032 0.080 0.088 0.080 0.154v2.258c-1.706 1.289-3.758 1.874-5.837 1.728 0.32-0.201 0.668-0.451 0.938-0.663 0.104-0.082 0.164-0.207 0.164-0.341v-2.718c0-0.38-0.189-0.729-0.529-0.948l-2.065-1.169 0.502-0.28c0.609 0.5 1.132 0.649 1.602 0.649 0.574 0 1.178-0.284 1.627-0.662l3.518 1.993zM22.444 3.888c1.196 0 2.247 0.787 2.618 1.87-0.722-0.086-1.427-0.445-1.938-0.997-0.092-0.1-0.224-0.151-0.36-0.135-0.134 0.014-0.254 0.092-0.323 0.208-0.49 0.827-1.294 1.379-2.207 1.536 0-0.001-0-0.002-0-0.003 0.004-0.188-0.007-0.379-0.028-0.57-0.002-0.020-0.004-0.039-0.006-0.058-0.028-0.217-0.093-0.488-0.105-0.531 0.488-0.787 1.394-1.32 2.351-1.32zM20.139 7.253c1.086-0.12 2.067-0.669 2.742-1.538 0.665 0.549 1.508 0.882 2.341 0.922-0.006 1.564-1.275 4.3-2.778 4.3-1.159 0-2.148-1.669-2.517-2.826 0.094-0.298 0.162-0.584 0.213-0.858zM20.226 10.507l-0.768 0.428-0.775-0.439c0.287-0.361 0.551-0.779 0.777-1.233 0.217 0.459 0.477 0.882 0.766 1.244zM19.068 7.969c-0.414 1.245-1.477 3.046-2.772 3.046-1.51 0-2.795-2.5-3.040-4.098 0.065-0.016 2.105 0.11 3.509-1.746 0.712 0.6 1.674 0.998 2.609 1.037 0.011 0.564-0.125 1.227-0.305 1.761zM16.321 3.193c2.408 0 2.867 2.088 2.905 2.131-0.873-0.089-1.67-0.52-2.221-1.113-0.092-0.1-0.227-0.15-0.36-0.135s-0.254 0.093-0.323 0.21c-0.477 0.813-1.225 1.386-2.092 1.63-0.334 0.094-0.696 0.137-1.011 0.134 0.118-1.59 1.383-2.857 3.102-2.857zM13.125 9.255c0.223 0.449 0.488 0.878 0.791 1.255l-0.759 0.425-0.786-0.445c0.298-0.383 0.551-0.811 0.753-1.235zM10.131 3.888c0.974 0 1.867 0.498 2.365 1.321-0.025 0.087-0.092 0.435-0.101 0.478-0.598-0.144-1.147-0.465-1.578-0.927-0.093-0.099-0.224-0.149-0.36-0.134-0.134 0.015-0.254 0.093-0.323 0.21-0.575 0.977-1.63 1.584-2.753 1.584 0.137-1.42 1.315-2.531 2.75-2.531zM7.419 7.282c1.235-0.012 2.4-0.598 3.156-1.567 0.516 0.428 1.129 0.71 1.781 0.839 0.025 0.502 0.155 1.111 0.303 1.561-0.237 0.733-0.692 1.606-1.257 2.187-0.004 0.004-0.008 0.005-0.012 0.009-0.353 0.375-0.856 0.627-1.251 0.627-1.381 0-2.461-2.189-2.721-3.655zM4.914 13.287c0-0.066 0.029-0.121 0.058-0.141l3.566-1.993c0.214 0.179 0.263 0.2 0.306 0.232l-0 0c0.42 0.281 0.804 0.421 1.329 0.421 0.559 0 1.068-0.239 1.516-0.606 0.025-0.020 0.052-0.039 0.076-0.059l0.509 0.288-2.12 1.188c-0.317 0.206-0.506 0.555-0.506 0.935v2.718c0 0.133 0.060 0.258 0.164 0.34 0.274 0.217 0.63 0.47 0.938 0.664-2.109 0.145-4.161-0.461-5.838-1.728v-2.258z"></path>
<path d="M29.412 20.463c-0.529-0.335-1.179-0.369-1.739-0.096l-5.302 2.58c-0.018-1-0.828-1.808-1.825-1.808l-3.040 0.001c-1.499-1.313-3.415-2.116-5.157-2.159-1.718-0.041-3.26-0.053-3.979-0.056v-0.874h-6.041v10.051h6.041v-1.204c1.657 0.957 6.012 3.356 8.079 3.356 0.047 0 0.093-0.001 0.137-0.004 3.635-0.205 12.209-6.282 12.775-6.686 0.553-0.323 0.896-0.922 0.896-1.567 0-0.628-0.315-1.201-0.843-1.535zM7.509 27.237h-4.322v-8.32h4.322v8.32zM28.916 22.823c-0.013 0.007-0.026 0.015-0.038 0.024-0.089 0.063-8.908 6.346-12.342 6.54-0.034 0.002-0.068 0.003-0.105 0.003-1.813 0-6.233-2.402-8.064-3.492v-6.106c0.716 0.003 2.25 0.015 3.959 0.056 1.591 0.038 3.358 0.804 4.727 2.047l0.123 0.112 3.368-0.001c0.535 0 0.97 0.438 0.97 0.976s-0.435 0.977-0.969 0.977h-6.188v0.866h6.188c0.593 0 1.116-0.29 1.45-0.733l6.051-2.944c0.297-0.146 0.628-0.127 0.909 0.050s0.44 0.469 0.44 0.801c0 0.341-0.183 0.657-0.479 0.825z"></path>
<path d="M16.721 12.938h-0.859v0.803h0.859v-0.803z"></path>
<path d="M16.721 14.539h-0.859v0.803h0.859v-0.803z"></path>
<path d="M16.721 16.139h-0.859v0.802h0.859v-0.802z"></path>
</symbol>
<symbol id="icon-how-we5" viewBox="0 0 32 32">
<path d="M4.124 29.091c3.054 0 20.724 0 23.775 0 0.118-2.634-0.076-7.005-1.743-9.085l-0.060-0.075-3.643-1.777c0.079-0.259 0.118-0.497 0.134-0.671 0.018-0.209-0.012-0.406-0.089-0.585-0.601-1.397-1.873-2.132-2.572-2.446 0.213-0.417 0.351-0.865 0.417-1.323 0.396-0.108 0.714-0.413 0.819-0.82l0.425-1.678c0.075-0.296 0.028-0.603-0.134-0.864-0.070-0.113-0.16-0.207-0.261-0.288 1.199-2.646-0.809-5.14-0.918-5.272-2.175-2.284-4.921-1.857-5.067-1.832-3.964 0.807-5.494 3.758-4.63 7.221-0.256 0.275-0.363 0.659-0.268 1.035l0.427 1.68c0.104 0.404 0.42 0.708 0.813 0.817 0.121 0.838 0.487 1.596 1.023 2.207v1.331c-5.689 2.831-2.084 1.025-6.643 3.266-0.009 0.042-2.139 2.241-1.823 8.761l0.019 0.398zM27.073 28.255h-3.913v-1.597l2.588-5.756c1.297 2.091 1.345 6.083 1.325 7.353zM21.733 17.412c-0.151 1.685-1.102 1.176-1.689 2.474-0.462-0.493-0.601-1.085-0.477-1.719 0.224-1.163-0.506-1.508-0.326-2.73l0.027-0.028v-0.004c0.016-0.017 0.16-0.184 0.201-0.236 1.548 0.656 2.293 1.875 2.263 2.243zM13.428 16.087c0.719 0.484 1.586 0.771 2.519 0.771 0.879 0 1.713-0.248 2.429-0.706 0.099 0.961 0.486 1.153 0.349 1.86-0.026 0.131-0.040 0.261-0.048 0.388l-2.665 2.918-3.406-3.731 0.822-0.417v-1.082zM12.356 12.516v-1.618c0-0.596 0-2.959 0-2.843 0.415-0.745 0.98-1.286 1.683-1.61 1.882 1.035 4.048 2.579 5.501 4.132-0.001 1.979 0.006 1.984-0.008 2.147l-0.001 0.010c-0.113 1.797-1.634 3.286-3.584 3.286-1.896 0-3.47-1.446-3.584-3.304-0.006-0.067-0.007-0.133-0.007-0.201zM11.826 17.989l4.186 4.585 2.81-3.078c0.064 0.18 0.154 0.349 0.257 0.513l-3.068 3.728-4.575-5.559 0.389-0.189zM20.397 11.843v-1.292c0.038-0.042 0.357-0.398 0.32-0.356 0.018 0.654 0.090-0.118-0.32 1.648zM15.365 3.197c0.17 0.010 2.454-0.338 4.26 1.556 0.071 0.087 1.541 1.926 0.95 3.939-0.202-0.896-0.554-2.043-1.111-2.591l-0.609 0.589c0.55 0.541 0.911 2.188 1.048 3.042-2.521-2.563-5.774-4.186-5.818-4.213-0.163 0.099-1.539 0.353-2.539 2.24l-0.048 0.090v1.386c-0.043 0-0.169 0.002-0.126 0.001-0.635-2.979 0.581-5.346 3.992-6.040zM11.283 10.097l0.216 0.851v0.895l-0.36-1.414c-0.053-0.211 0.108-0.291 0.143-0.333zM10.653 18.561l5.359 6.512 3.626-4.406c0.394 0.343 0.584 0.392 1.42 0.809l-0.282-0.93c-0.072-0.236 0.212-0.615 0.383-0.789 0.382-0.201 0.7-0.488 0.939-0.843l2.958 1.443-2.753 6.123v1.772h-12.583v-1.772l-2.754-6.123 3.687-1.798zM6.275 20.903l2.588 5.755v1.597h-3.913c-0.020-1.27 0.029-5.26 1.325-7.351z"></path>
</symbol>
<symbol id="icon-how-we6" viewBox="0 0 32 32">
<path d="M3.018 26.77h9.923c0.503 1.057 1.555 1.74 2.743 1.74h0.627c1.189 0 2.24-0.682 2.743-1.74h9.928c1.023 0 1.855-0.843 1.855-1.879v-18.010c0-1.036-0.832-1.879-1.855-1.879h-1.002v-0.839c0-0.691-0.555-1.253-1.236-1.253h-21.494c-0.682 0-1.236 0.562-1.236 1.253v0.839h-0.995c-1.023 0-1.855 0.843-1.855 1.879v18.010c0 1.036 0.832 1.879 1.855 1.879zM26.743 22.905h-10.125v-14.557c2.34 0.31 4.155 2.339 4.155 4.794v0.565l-0.147-0.033c-0.159-0.035-0.327-0.006-0.465 0.084s-0.236 0.231-0.271 0.393l-0.984 4.538c-0.073 0.337 0.138 0.671 0.471 0.745l2.127 0.475c0.11 0.024 0.222 0.036 0.333 0.036 0.748 0 1.385-0.518 1.548-1.262l0.569-2.624c0.188-0.862-0.351-1.719-1.204-1.911l-0.74-0.165v-0.841c0-3.147-2.367-5.744-5.391-6.060v-2.92h10.126l-0.001 18.743zM20.964 15.032l1.518 0.339c0.19 0.043 0.305 0.226 0.264 0.418l-0.569 2.624c-0.041 0.19-0.248 0.307-0.412 0.272l-1.52-0.34 0.719-3.313zM5.25 4.162h10.132v2.919c-3.027 0.313-5.397 2.912-5.397 6.061v0.841l-0.741 0.166c-0.413 0.093-0.765 0.342-0.992 0.702-0.228 0.361-0.302 0.79-0.211 1.207l0.568 2.621c0.154 0.734 0.805 1.266 1.549 1.266 0.112 0 0.223-0.012 0.337-0.037l2.118-0.474c0.333-0.075 0.543-0.408 0.47-0.745l-0.984-4.538c-0.035-0.162-0.133-0.304-0.271-0.393s-0.307-0.119-0.466-0.084l-0.141 0.032v-0.564c0-2.457 1.817-4.487 4.161-4.795v14.558h-10.132v-18.743zM11.025 15.033l0.72 3.313-1.512 0.338c-0.186 0.042-0.376-0.082-0.415-0.27l-0.569-2.627c-0.021-0.091-0.004-0.184 0.045-0.262s0.127-0.133 0.217-0.154l1.515-0.339zM2.4 6.881c0-0.345 0.277-0.626 0.618-0.626h0.995v16.65c0 0.691 0.555 1.253 1.236 1.253h21.494c0.682 0 1.236-0.562 1.236-1.253v-16.65h1.002c0.341 0 0.618 0.281 0.618 0.626v18.010c0 0.345-0.277 0.626-0.618 0.626h-10.349c-0.272 0-0.511 0.18-0.591 0.443-0.235 0.776-0.931 1.297-1.732 1.297h-0.627c-0.798 0-1.494-0.519-1.734-1.304-0.082-0.259-0.32-0.435-0.589-0.435h-10.342c-0.341 0-0.618-0.281-0.618-0.626v-18.010z"></path>
</symbol>
<symbol id="icon-logo" viewBox="0 0 32 32">
<path d="M26.176 16.593c-0.284-0.635-0.675-1.261-1.247-1.983-1.442-1.813-1.882-5.857-1.887-5.896-0.020-0.194-0.156-0.354-0.337-0.412-0.186-0.058-0.386-0.005-0.518 0.141-1.721 1.925-0.997 4.897-0.606 6.085 0.108 0.325 0.225 0.708 0.308 1.096 0.636 3.137-0.592 4.558-0.88 4.844-0.279 0.078-0.469 0.039-0.645-0.15-0.606-0.664-0.807-2.841-0.523-5.678 0.059-0.577 0.044-1.096-0.039-1.581-0.598-3.486-2.791-5.722-3.349-6.507-1.535-2.269-1.692-6.046-1.696-6.080-0.005-0.179-0.108-0.339-0.269-0.417-0.156-0.078-0.347-0.068-0.494 0.034-2.562 1.741-2.342 5.935-1.985 8.276 0.083 0.543 0.244 1.096 0.523 1.794 0.992 2.497-0.196 5.721-0.205 5.75s-0.020 0.053-0.024 0.082c-0.152 0.795-0.406 1.27-0.689 1.27-0.029 0-0.059-0.005-0.093-0.015-0.347-0.073-0.528-0.441-0.533-0.761-0.020-4.136-4.17-5.527-4.214-5.542-0.186-0.058-0.391-0.005-0.518 0.146-0.132 0.15-0.156 0.359-0.068 0.533 0.049 0.102 0.205 0.548 0.098 2.124-0.093 1.416-0.352 2.817-0.768 4.16-0.988 3.219-0.831 6.269-0.821 6.415 0.759 8.257 12.635 9.704 19.683 5.052 0.772-0.509 1.403-1.091 1.868-1.731 2.601-3.588 1.071-8.461-0.068-11.050zM8.111 24.481c0.015 0.267-0.191 0.495-0.46 0.509h-0.029c-0.259 0-0.474-0.199-0.489-0.456-0.044-0.708-0.034-1.45 0.020-2.255 0.020-0.267 0.254-0.465 0.523-0.451 0.269 0.019 0.474 0.252 0.455 0.519-0.054 0.766-0.064 1.464-0.020 2.133zM8.351 20.185c-0.029 0.247-0.24 0.427-0.484 0.427-0.020 0-0.039 0-0.064-0.005-0.264-0.034-0.455-0.271-0.425-0.538l0.235-1.872c0.034-0.262 0.274-0.451 0.548-0.422 0.269 0.034 0.46 0.276 0.425 0.543l-0.235 1.867z"></path>
<path d="M22.868 6.633c-0.267-0.041-0.45-0.288-0.408-0.553 0.030-0.197 0.207-1.205 0.686-1.713 0.185-0.196 0.493-0.206 0.691-0.022s0.207 0.49 0.022 0.685c-0.203 0.215-0.376 0.829-0.433 1.197-0.041 0.262-0.287 0.445-0.558 0.405z"></path>
<path d="M5.045 9.048c-0.094-0.361-0.326-0.955-0.549-1.149-0.203-0.177-0.223-0.483-0.045-0.684s0.486-0.222 0.69-0.045c0.527 0.458 0.802 1.445 0.852 1.638 0.067 0.259-0.091 0.523-0.352 0.59-0.267 0.067-0.529-0.094-0.595-0.349z"></path>
</symbol>
<symbol id="icon-menu-burger" viewBox="0 0 32 32">
<path stroke-linejoin="miter" stroke-linecap="round" stroke-miterlimit="4" stroke-width="2.7826" d="M1.391 7.652h29.217"></path>
<path stroke-linejoin="miter" stroke-linecap="round" stroke-miterlimit="4" stroke-width="2.7826" d="M1.391 16h29.217"></path>
<path stroke-linejoin="miter" stroke-linecap="round" stroke-miterlimit="4" stroke-width="2.7826" d="M1.391 24.348h29.217"></path>
</symbol>
<symbol id="icon-menu-close" viewBox="0 0 32 32">
<path stroke-linejoin="miter" stroke-linecap="round" stroke-miterlimit="4" stroke-width="3.5556" d="M2.67 28.885l25.77-25.77"></path>
<path stroke-linejoin="miter" stroke-linecap="round" stroke-miterlimit="4" stroke-width="3.5556" d="M28.441 28.885l-25.77-25.77"></path>
</symbol>
<symbol id="icon-phone" viewBox="0 0 32 32">
<path d="M4.657 0.003c-0.515 0.025-1.021 0.253-1.392 0.678l-2.595 2.969c0.004-0.009-0.010-0.008-0.084 0.101-0.039 0.056-0.070 0.118-0.090 0.184-1.056 3.502-0.348 7.354 1.376 11.018s4.475 7.17 7.633 10.047c3.158 2.877 6.721 5.128 10.119 6.245s6.692 1.102 9.133-0.742c0.027-0.020 0.051-0.043 0.075-0.067 0.064-0.067 0.066-0.075 0.056-0.065l0.010-0.013 2.582-2.956c0.742-0.849 0.682-2.184-0.134-2.956l-6.126-5.799c-0.816-0.772-2.098-0.711-2.84 0.138l-2.772 3.173c-2.25-0.678-4.173-1.828-6.023-3.579s-3.132-3.637-3.993-5.906l2.771-3.173c0.742-0.849 0.683-2.184-0.133-2.956l-6.126-5.8c-0.408-0.386-0.933-0.564-1.448-0.539l-0.001 0zM4.715 1.304c0.19-0.009 0.383 0.060 0.541 0.209l6.126 5.799c0.316 0.299 0.337 0.776 0.050 1.104l-3.063 3.504c-0.077 0.089-0.129 0.197-0.151 0.315s-0.013 0.239 0.027 0.351c0.93 2.641 2.429 4.807 4.493 6.761s4.275 3.304 6.889 4.018c0.111 0.030 0.228 0.028 0.339-0.006s0.21-0.099 0.287-0.187l3.064-3.505c0.287-0.328 0.744-0.35 1.060-0.051l6.127 5.799c0.316 0.299 0.336 0.775 0.049 1.103l-2.561 2.931c-2.003 1.497-4.825 1.581-7.986 0.542-3.173-1.043-6.617-3.203-9.666-5.98s-5.702-6.169-7.332-9.633c-1.614-3.429-2.199-6.895-1.312-9.95l2.502-2.862c0.143-0.164 0.33-0.252 0.52-0.261l0 0z"></path>
</symbol>
<symbol id="icon-program-dot" viewBox="0 0 32 32">
<path d="M30.387 16c0 8.317-6.802 15.059-15.193 15.059s-15.193-6.742-15.193-15.059c0-8.317 6.802-15.059 15.193-15.059s15.193 6.742 15.193 15.059z"></path>
</symbol>
<symbol id="icon-teach-check" viewBox="0 0 32 32">
<path d="M28.237 4.411c-1.216 0.531-2.382 1.18-3.495 1.903-2.238 1.437-4.284 3.149-6.203 4.975-1.918 1.83-3.704 3.788-5.393 5.824-0.422 0.509-2.313 2.776-2.313 2.776l-7.864-11.504-2.969 8.033 10.635 12.381c1.033-2.041 2.027-4.056 3.001-5.806 0.242-0.445 0.496-0.864 0.738-1.29 0 0 1.248-2.142 1.576-2.681 1.312-2.158 2.731-4.26 4.293-6.256 1.564-1.993 3.264-3.896 5.191-5.569 0.959-0.842 1.98-1.62 3.073-2.298 1.092-0.679 2.251-1.273 3.492-1.7-1.291 0.248-2.55 0.678-3.763 1.211z"></path>
<symbol id="icon-logo-full" viewBox="0 0 91 32"><path fill="#111518" style="fill:var(--color1, #111518)" d="M13.608 4.836v12.942H9.947v-5.047H4.955v5.047H1.294V4.836h3.661v4.863h4.992V4.836h3.661zm13.398 7.95c0 .025-.018.314-.055.869h-7.285c.148.518.431.918.851 1.202.431.271.968.407 1.609.407.481 0 .894-.068 1.239-.203a3.63 3.63 0 0 0 1.072-.666l1.849 1.923c-.974 1.085-2.397 1.627-4.271 1.627-1.171 0-2.2-.222-3.088-.666s-1.578-1.06-2.071-1.849c-.481-.789-.721-1.683-.721-2.681 0-.986.234-1.867.703-2.644.481-.789 1.14-1.405 1.978-1.849s1.781-.666 2.829-.666c.998 0 1.904.21 2.718.629a4.58 4.58 0 0 1 1.923 1.793c.481.777.721 1.701.721 2.773zm-5.343-2.7c-.542 0-.998.154-1.368.462-.357.308-.586.727-.684 1.257h4.105c-.099-.53-.333-.949-.703-1.257-.357-.308-.807-.462-1.35-.462zm7.702-6.027h3.513v13.719h-3.513V4.059zm6.536 0h3.513v13.719h-3.513V4.059z"/><path fill="#ff6b09" style="fill:var(--color2, #ff6b09)" d="M5.547 26.596v3.982h-.922v-1.633H2.816v1.633h-.922v-3.982h.922v1.57h1.809v-1.57h.922zm5.049 3.242v.74H7.513v-3.982h3.009v.74H8.428v.865h1.849v.717H8.428v.922h2.167zm1.758-3.242h.922v3.231h1.997v.751h-2.918v-3.982zm4.457 0h.922v3.231h1.997v.751h-2.918v-3.982zm4.457 0h.922v3.982h-.922v-3.982zm4.199 4.05c-.315 0-.62-.042-.916-.125a2.163 2.163 0 0 1-.705-.336l.313-.694c.171.125.374.226.609.302s.47.114.705.114c.262 0 .455-.038.58-.114.125-.08.188-.184.188-.313a.284.284 0 0 0-.114-.233.79.79 0 0 0-.284-.154 5.18 5.18 0 0 0-.466-.125c-.303-.072-.552-.144-.745-.216s-.36-.188-.501-.347c-.137-.159-.205-.372-.205-.637 0-.231.063-.44.188-.626.125-.19.313-.339.563-.449.254-.11.563-.165.927-.165.254 0 .502.03.745.091s.455.148.637.262l-.284.7a2.218 2.218 0 0 0-1.104-.313c-.258 0-.449.042-.575.125-.121.083-.182.193-.182.33s.07.239.21.307c.144.064.362.129.654.193.303.072.552.144.745.216s.358.186.495.341c.14.156.21.366.21.631 0 .228-.064.436-.193.626-.125.186-.315.334-.569.444s-.563.165-.927.165zm6.996-4.05v3.982h-.922v-1.633h-1.809v1.633h-.922v-3.982h.922v1.57h1.809v-1.57h.922z"/><path fill="#111518" style="fill:var(--color1, #111518)" d="M40.148 29.838v.74h-3.083v-3.982h3.009v.74h-2.093v.865h1.849v.717h-1.849v.922h2.167zm5.409-3.242v3.982H44.8l-1.985-2.418v2.418h-.91v-3.982h.762l1.98 2.418v-2.418h.91zm4.657 1.928h.842v1.616c-.216.163-.467.288-.751.375s-.571.131-.859.131c-.413 0-.785-.087-1.115-.262a2.01 2.01 0 0 1-.779-.734c-.186-.315-.279-.669-.279-1.064s.093-.747.279-1.058c.19-.315.451-.559.785-.734a2.355 2.355 0 0 1 1.126-.267c.349 0 .666.059.95.176s.523.288.717.512l-.592.546a1.367 1.367 0 0 0-1.03-.449c-.254 0-.48.053-.677.159s-.351.256-.461.449c-.11.193-.165.415-.165.666 0 .247.055.466.165.66s.262.345.455.455c.197.106.421.159.671.159.266 0 .504-.057.717-.171v-1.166zm2.722-1.928h.922v3.231h1.997v.751h-2.918v-3.982zm4.458 0h.922v3.982h-.922v-3.982zm4.199 4.05c-.315 0-.62-.042-.916-.125a2.163 2.163 0 0 1-.705-.336l.313-.694c.171.125.374.226.609.302s.47.114.705.114c.262 0 .455-.038.58-.114.125-.08.188-.184.188-.313a.284.284 0 0 0-.114-.233.79.79 0 0 0-.284-.154 5.125 5.125 0 0 0-.467-.125c-.303-.072-.552-.144-.745-.216s-.36-.188-.501-.347c-.137-.159-.205-.372-.205-.637 0-.231.063-.44.188-.626.125-.19.313-.339.563-.449.254-.11.563-.165.927-.165.254 0 .503.03.745.091s.455.148.637.262l-.284.7a2.218 2.218 0 0 0-1.104-.313c-.258 0-.449.042-.575.125-.121.083-.182.193-.182.33s.07.239.211.307c.144.064.362.129.654.193.303.072.552.144.745.216s.358.186.495.341c.14.156.211.366.211.631 0 .228-.064.436-.193.626-.125.186-.315.334-.569.444s-.563.165-.927.165zm6.995-4.05v3.982h-.922v-1.633h-1.809v1.633h-.922v-3.982h.922v1.57h1.809v-1.57h.922zM74.263 14.949v2.829H63.872V4.836h10.15v2.829h-6.527v2.182h5.75v2.736h-5.75v2.367h6.767zM89.348 4.836v12.942h-3.014l-5.713-6.896v6.896h-3.587V4.836h3.014l5.713 6.896V4.836h3.587z"/><path fill="#ff6b09" style="fill:var(--color2, #ff6b09)" d="M58.695 11.062c-.189-.423-.45-.84-.831-1.322-.962-1.209-1.255-3.905-1.258-3.931a.326.326 0 0 0-.225-.275.33.33 0 0 0-.345.094c-1.147 1.283-.665 3.265-.404 4.057.072.217.15.472.205.731.424 2.091-.394 3.038-.587 3.229-.186.052-.313.026-.43-.1-.404-.443-.538-1.894-.349-3.785a3.89 3.89 0 0 0-.026-1.054c-.399-2.324-1.86-3.815-2.233-4.338C51.189 2.855 51.084.337 51.081.315a.324.324 0 0 0-.508-.255c-1.708 1.16-1.561 3.956-1.323 5.518.055.362.163.731.349 1.196.662 1.665-.13 3.814-.137 3.834s-.013.036-.016.055c-.101.53-.271.847-.46.847a.205.205 0 0 1-.062-.01c-.231-.048-.352-.294-.355-.507-.013-2.757-2.78-3.685-2.809-3.694a.323.323 0 0 0-.345.097.32.32 0 0 0-.046.356c.033.068.137.365.065 1.416a12.072 12.072 0 0 1-.512 2.773 13.547 13.547 0 0 0-.548 4.276c.506 5.505 8.423 6.469 13.122 3.368a4.742 4.742 0 0 0 1.245-1.154c1.734-2.392.714-5.64-.046-7.366zm-12.043 5.259a.322.322 0 0 1-.306.339h-.02a.324.324 0 0 1-.326-.304c-.029-.472-.023-.966.013-1.503a.326.326 0 0 1 .652.045c-.036.511-.042.976-.013 1.422zm.16-2.864a.323.323 0 0 1-.323.284c-.013 0-.026 0-.042-.003a.327.327 0 0 1-.284-.359l.156-1.248a.328.328 0 0 1 .365-.281.326.326 0 0 1 .284.362l-.156 1.244zM56.49 4.422a.322.322 0 0 1-.272-.368c.02-.131.138-.804.458-1.142.123-.13.329-.137.461-.015s.138.327.015.457c-.135.143-.25.553-.289.798a.326.326 0 0 1-.372.27zM44.608 6.032c-.062-.24-.217-.637-.366-.766-.135-.118-.149-.322-.03-.456s.324-.148.46-.03c.351.305.535.963.568 1.092a.322.322 0 0 1-.235.393.327.327 0 0 1-.397-.232z"/></symbol>
</symbol>
<symbol id="icon-logo-c" viewBox="0 0 23 32"><path fill="#ff6b09" style="fill:var(--color1, #ff6b09)" d="M21.909 16.593c-.284-.635-.675-1.261-1.247-1.983-1.442-1.813-1.882-5.857-1.887-5.896a.488.488 0 0 0-.337-.412.495.495 0 0 0-.518.141c-1.721 1.925-.997 4.897-.606 6.085.108.325.225.708.308 1.096.636 3.137-.592 4.558-.88 4.844-.279.078-.469.039-.645-.15-.606-.664-.807-2.841-.523-5.678a5.797 5.797 0 0 0-.039-1.581c-.598-3.486-2.791-5.722-3.349-6.507C10.651 4.283 10.494.506 10.49.472a.487.487 0 0 0-.763-.383C7.165 1.83 7.385 6.024 7.742 8.365c.083.543.244 1.096.523 1.794.992 2.497-.196 5.721-.205 5.75s-.02.053-.024.082c-.152.795-.406 1.27-.689 1.27a.327.327 0 0 1-.093-.015c-.347-.073-.528-.441-.533-.761-.02-4.136-4.17-5.527-4.214-5.542a.485.485 0 0 0-.518.146.476.476 0 0 0-.068.533c.049.102.205.548.098 2.124a18.09 18.09 0 0 1-.768 4.16C.263 21.125.42 24.175.43 24.321c.759 8.257 12.635 9.704 19.683 5.052.772-.509 1.403-1.091 1.868-1.731 2.601-3.588 1.071-8.461-.068-11.05zM3.845 24.481a.484.484 0 0 1-.46.509h-.029a.487.487 0 0 1-.489-.456c-.044-.708-.034-1.45.02-2.255a.49.49 0 0 1 .978.068 15.622 15.622 0 0 0-.02 2.133zm.239-4.296a.485.485 0 0 1-.484.427c-.02 0-.039 0-.064-.005a.488.488 0 0 1-.425-.538l.235-1.872a.494.494 0 0 1 .548-.422c.269.034.46.276.425.543l-.235 1.867zM18.602 6.633a.484.484 0 0 1-.408-.553c.03-.197.207-1.205.686-1.713.185-.196.493-.206.691-.022s.207.49.022.685c-.203.215-.376.829-.433 1.197a.489.489 0 0 1-.558.405zM.778 9.048C.684 8.687.452 8.093.229 7.899c-.203-.177-.223-.483-.045-.684s.486-.222.69-.045c.527.458.802 1.445.852 1.638a.49.49 0 0 1-.947.241z"/></symbol>
<symbol id="icon-close_40px" viewBox="0 0 32 32"><path d="M23.733 10.304 22.229 8.8l-5.963 5.963L10.303 8.8l-1.504 1.504 5.963 5.963-5.963 5.963 1.504 1.504 5.963-5.963 5.963 5.963 1.504-1.504-5.963-5.963 5.963-5.963z"/></symbol><symbol id="icon-menu_40px" viewBox="0 0 32 32"><path d="M6.4 11.733V9.6h19.2v2.133H6.4zm0 5.334h19.2v-2.133H6.4v2.133zm0 5.333h19.2v-2.133H6.4V22.4z"/></symbol>
<symbol id="icon-menu-bur" viewBox="0 0 53 32"><path stroke-linecap="round" stroke-width="4.571" d="M2.286 2.286h48M2.286 16h48M2.286 29.714h48"/></symbol>
<symbol id="icon-campfire" viewBox="0 0 28 32">
<path d="M28.799 21.831c-0.373-0.836-0.887-1.659-1.639-2.609-1.896-2.386-2.474-7.706-2.481-7.757-0.026-0.255-0.206-0.466-0.443-0.542-0.244-0.077-0.508-0.006-0.681 0.185-2.262 2.533-1.311 6.443-0.797 8.006 0.141 0.427 0.296 0.931 0.405 1.442 0.835 4.127-0.778 5.996-1.157 6.373-0.366 0.102-0.617 0.051-0.848-0.198-0.797-0.874-1.060-3.738-0.688-7.47 0.077-0.759 0.058-1.442-0.051-2.080-0.786-4.587-3.668-7.529-4.402-8.561-2.018-2.985-2.224-7.955-2.23-7.999-0.006-0.236-0.141-0.447-0.353-0.549-0.206-0.102-0.456-0.089-0.649 0.045-3.368 2.29-3.078 7.808-2.609 10.889 0.109 0.714 0.321 1.442 0.688 2.36 1.305 3.285-0.257 7.527-0.27 7.566s-0.026 0.070-0.032 0.108c-0.199 1.046-0.533 1.671-0.906 1.671-0.039 0-0.077-0.006-0.122-0.019-0.456-0.096-0.694-0.581-0.7-1.002-0.026-5.441-5.482-7.272-5.54-7.291-0.244-0.077-0.514-0.006-0.681 0.191-0.174 0.198-0.206 0.472-0.090 0.702 0.064 0.134 0.27 0.721 0.129 2.794-0.122 1.863-0.463 3.706-1.009 5.473-1.298 4.236-1.093 8.248-1.080 8.439 0.998 10.864 16.609 12.768 25.873 6.647 1.015-0.67 1.844-1.435 2.455-2.277 3.419-4.721 1.407-11.131-0.090-14.538zM5.053 32.21c0.019 0.351-0.251 0.651-0.604 0.67h-0.039c-0.341 0-0.623-0.262-0.643-0.6-0.058-0.931-0.045-1.907 0.026-2.966 0.026-0.351 0.334-0.612 0.688-0.593 0.353 0.026 0.623 0.332 0.598 0.683-0.071 1.008-0.084 1.927-0.026 2.807zM5.368 26.558c-0.039 0.325-0.315 0.561-0.636 0.561-0.026 0-0.051 0-0.084-0.006-0.347-0.045-0.598-0.357-0.559-0.708l0.308-2.462c0.045-0.344 0.36-0.593 0.72-0.555 0.353 0.045 0.604 0.364 0.559 0.714l-0.308 2.456z"></path>
<path d="M24.451 8.727c-0.351-0.054-0.591-0.379-0.537-0.727 0.040-0.259 0.272-1.586 0.902-2.253 0.243-0.257 0.649-0.271 0.908-0.029 0.259 0.241 0.272 0.644 0.029 0.902-0.267 0.283-0.494 1.091-0.57 1.575-0.054 0.344-0.378 0.586-0.733 0.533z"></path>
<path d="M1.023 11.905c-0.123-0.474-0.429-1.257-0.722-1.512-0.267-0.232-0.294-0.635-0.060-0.9s0.639-0.292 0.907-0.059c0.693 0.603 1.054 1.901 1.12 2.154 0.088 0.341-0.119 0.688-0.462 0.776-0.351 0.088-0.695-0.123-0.783-0.459z"></path>
</symbol>
<symbol id="icon-close" viewBox="0 0 18 18">
<path d="M14.5 4.60786 13.3921 3.5 9 7.89214 4.60786 3.5 3.5 4.60786 7.89214 9 3.5 13.3921 4.60786 14.5 9 10.1079 13.3921 14.5 14.5 13.3921 10.1079 9 14.5 4.60786Z" />
</symbol>
<symbol id="icon-checkbox" viewBox="0 0 16 15">
<rect width="16" height="15" rx="2" fill="currentColor"/>
<path d="m3.957 7.752-.069-.066-.069.065-.888.842-.076.072.076.073 3.496 3.334.069.066.069-.066 7.504-7.158.076-.073-.076-.072-.882-.841-.069-.066-.069.066-6.553 6.246-2.539-2.422Z" fill="#fff" stroke="#fff" stroke-width=".2"/>
</symbol>
<symbol id="icon-input-1" viewBox="0 0 18 18">
<path d="M9 9a3 3 0 1 0 0-6 3 3 0 1 0 0 6Zm0 1.5c-2.003 0-6 1.005-6 3v.75c0 .412.337.75.75.75h10.5c.412 0 .75-.338.75-.75v-.75c0-1.995-3.998-3-6-3Z"/>
</symbol>
<symbol id="icon-input-2" viewBox="0 0 18 18">
<path d="m13.996 11.123-1.838-.21a1.441 1.441 0 0 0-1.187.412l-1.332 1.332a10.888 10.888 0 0 1-4.769-4.77L6.21 6.55a1.44 1.44 0 0 0 .412-1.187l-.21-1.824a1.448 1.448 0 0 0-1.44-1.28H3.72c-.818 0-1.498.68-1.448 1.498.384 6.18 5.327 11.115 11.5 11.499.817.05 1.498-.63 1.498-1.448v-1.252a1.434 1.434 0 0 0-1.274-1.432Z" />
</symbol>
<symbol id="icon-input-3" viewBox="0 0 18 18">
<path d="M15 3H3c-.825 0-1.492.675-1.492 1.5l-.008 9c0 .825.675 1.5 1.5 1.5h12c.825 0 1.5-.675 1.5-1.5v-9c0-.825-.675-1.5-1.5-1.5Zm-.3 3.188L9.398 9.502a.759.759 0 0 1-.796 0L3.3 6.188a.637.637 0 1 1 .675-1.08L9 8.25l5.025-3.143a.637.637 0 1 1 .675 1.08Z" />
</symbol>
</defs>
</svg>
