<svg aria-hidden="true" style="position:absolute;width:0;height:0;overflow:hidden" xmlns="http://www.w3.org/2000/svg"><defs><symbol id="icon-logo-c" viewBox="0 0 23 32"><path fill="#ff6b09" style="fill:var(--color1, #ff6b09)" d="M21.909 16.593c-.284-.635-.675-1.261-1.247-1.983-1.442-1.813-1.882-5.857-1.887-5.896a.488.488 0 0 0-.337-.412.495.495 0 0 0-.518.141c-1.721 1.925-.997 4.897-.606 6.085.108.325.225.708.308 1.096.636 3.137-.592 4.558-.88 4.844-.279.078-.469.039-.645-.15-.606-.664-.807-2.841-.523-5.678a5.797 5.797 0 0 0-.039-1.581c-.598-3.486-2.791-5.722-3.349-6.507C10.651 4.283 10.494.506 10.49.472a.487.487 0 0 0-.763-.383C7.165 1.83 7.385 6.024 7.742 8.365c.083.543.244 1.096.523 1.794.992 2.497-.196 5.721-.205 5.75s-.02.053-.024.082c-.152.795-.406 1.27-.689 1.27a.327.327 0 0 1-.093-.015c-.347-.073-.528-.441-.533-.761-.02-4.136-4.17-5.527-4.214-5.542a.485.485 0 0 0-.518.146.476.476 0 0 0-.068.533c.049.102.205.548.098 2.124a18.09 18.09 0 0 1-.768 4.16C.263 21.125.42 24.175.43 24.321c.759 8.257 12.635 9.704 19.683 5.052.772-.509 1.403-1.091 1.868-1.731 2.601-3.588 1.071-8.461-.068-11.05zM3.845 24.481a.484.484 0 0 1-.46.509h-.029a.487.487 0 0 1-.489-.456c-.044-.708-.034-1.45.02-2.255a.49.49 0 0 1 .978.068 15.622 15.622 0 0 0-.02 2.133zm.239-4.296a.485.485 0 0 1-.484.427c-.02 0-.039 0-.064-.005a.488.488 0 0 1-.425-.538l.235-1.872a.494.494 0 0 1 .548-.422c.269.034.46.276.425.543l-.235 1.867zM18.602 6.633a.484.484 0 0 1-.408-.553c.03-.197.207-1.205.686-1.713.185-.196.493-.206.691-.022s.207.49.022.685c-.203.215-.376.829-.433 1.197a.489.489 0 0 1-.558.405zM.778 9.048C.684 8.687.452 8.093.229 7.899c-.203-.177-.223-.483-.045-.684s.486-.222.69-.045c.527.458.802 1.445.852 1.638a.49.49 0 0 1-.947.241z"/></symbol></defs></svg>