<svg width="15" height="20" viewBox="0 0 15 20" fill="none" xmlns="http://www.w3.org/2000/svg">
<g clip-path="url(#clip0_397_384)">
<path d="M14.0464 10.3704C13.877 9.97341 13.6432 9.5825 13.3013 9.13098C12.4394 7.99765 12.1764 5.47038 12.1735 5.44614C12.1618 5.32492 12.08 5.22492 11.9718 5.18856C11.8608 5.1522 11.741 5.18553 11.6621 5.27644C10.6336 6.47947 11.066 8.33704 11.2998 9.07947C11.3641 9.2825 11.4342 9.52189 11.4838 9.76432C11.8637 11.7249 11.1303 12.6128 10.9579 12.7916C10.7913 12.8401 10.6774 12.8158 10.5722 12.6977C10.2099 12.2825 10.0901 10.9219 10.2595 9.14917C10.2946 8.78856 10.2858 8.46432 10.2362 8.16129C9.87874 5.98241 8.56823 4.58477 8.2346 4.09462C7.3171 2.67644 7.2236 0.315833 7.22067 0.294621C7.21775 0.1825 7.15639 0.0825 7.05996 0.0340151C6.96646 -0.0144697 6.8525 -0.0084091 6.76484 0.0552273C5.23373 1.14311 5.36522 3.76432 5.57852 5.22795C5.62819 5.56735 5.72462 5.9128 5.89117 6.34917C6.48433 7.90977 5.77429 9.92492 5.76845 9.94311C5.7626 9.96129 5.75676 9.97644 5.75384 9.99462C5.66326 10.4916 5.51131 10.7886 5.34184 10.7886C5.32431 10.7886 5.30678 10.7855 5.28632 10.7795C5.07886 10.734 4.97075 10.5037 4.96783 10.3037C4.95614 7.71886 2.47538 6.84917 2.44908 6.84008C2.33804 6.80371 2.21532 6.83705 2.13935 6.93098C2.06046 7.02492 2.04585 7.15523 2.09844 7.26432C2.12766 7.32795 2.22116 7.60674 2.15688 8.59159C2.10136 9.47644 1.9465 10.3522 1.69813 11.1916C1.10789 13.2037 1.20139 15.1098 1.20724 15.2007C1.66111 20.3615 8.75877 21.2658 12.9711 18.3583C13.4328 18.0401 13.8097 17.6764 14.0873 17.2764C15.6419 15.034 14.7273 11.9886 14.0464 10.3704ZM3.24973 15.3007C3.2585 15.4673 3.13577 15.6098 2.97506 15.6189H2.95753C2.80267 15.6189 2.6741 15.4946 2.66533 15.334C2.63904 14.8916 2.64488 14.428 2.67702 13.9249C2.68871 13.7583 2.82897 13.634 2.98967 13.6431C3.15038 13.6552 3.27311 13.8007 3.26142 13.9673C3.22925 14.4461 3.22343 14.8825 3.24973 15.3007ZM3.39288 12.6158C3.37535 12.7704 3.2497 12.8825 3.1036 12.8825C3.09191 12.8825 3.08023 12.8825 3.06562 12.8795C2.90783 12.8583 2.79387 12.7098 2.8114 12.5431L2.95166 11.3734C2.97211 11.2098 3.11529 11.0916 3.27892 11.1098C3.43963 11.131 3.55359 11.2825 3.53313 11.4492L3.39288 12.6158Z" fill="#FF6B09"/>
<path d="M12.07 4.14541C11.9107 4.11981 11.8014 3.96535 11.8259 3.80008C11.8442 3.67696 11.9498 3.04665 12.2363 2.72971C12.3465 2.6075 12.5312 2.60114 12.6493 2.71596C12.767 2.83032 12.773 3.02211 12.6626 3.14432C12.5413 3.27853 12.438 3.66262 12.4035 3.89244C12.3788 4.05596 12.2318 4.17072 12.07 4.14541Z" fill="#FF6B09"/>
<path d="M1.41714 5.6548C1.36121 5.42943 1.22224 5.05777 1.08885 4.93643C0.967445 4.82604 0.955319 4.63459 1.06174 4.50883C1.16789 4.38277 1.35236 4.36989 1.47406 4.48071C1.78893 4.76701 1.95344 5.38359 1.98327 5.50416C2.02322 5.66619 1.92907 5.83101 1.77298 5.87274C1.61344 5.91434 1.45691 5.81413 1.41714 5.6548Z" fill="#FF6B09"/>
</g>
<defs>
<clipPath id="clip0_397_384">
<rect width="14.0255" height="20" fill="white" transform="translate(0.951721)"/>
</clipPath>
</defs>
</svg>
