<svg width="80" height="20" viewBox="0 0 80 20" fill="none" xmlns="http://www.w3.org/2000/svg">
<path d="M11.3266 5.72703V17.8442H7.95921V13.1185H3.36736V17.8442H0V5.72703H3.36736V10.2796H7.95921V5.72703H11.3266Z" fill="#111518"/>
<path d="M23.6508 13.1704C23.6508 13.1935 23.6338 13.4647 23.5998 13.984H16.8991C17.0352 14.4687 17.2959 14.8438 17.6814 15.1092C18.0783 15.3631 18.5715 15.49 19.161 15.49C19.6032 15.49 19.983 15.4265 20.3005 15.2996C20.6293 15.1727 20.9581 14.9649 21.2869 14.6764L22.9876 16.4767C22.0919 17.4922 20.7823 18 19.059 18C17.9819 18 17.0352 17.7923 16.2188 17.3768C15.4025 16.9614 14.7676 16.3844 14.3141 15.6458C13.8719 14.9072 13.6508 14.0706 13.6508 13.1358C13.6508 12.2126 13.8662 11.3875 14.2971 10.6605C14.7392 9.92188 15.3458 9.34487 16.1168 8.92943C16.8878 8.51398 17.7551 8.30626 18.7188 8.30626C19.6372 8.30626 20.4706 8.50244 21.2189 8.89481C21.9672 9.27563 22.5567 9.83533 22.9876 10.5739C23.4298 11.3009 23.6508 12.1664 23.6508 13.1704ZM18.7359 10.6431C18.237 10.6431 17.8175 10.7874 17.4773 11.0759C17.1485 11.3644 16.9388 11.7568 16.8481 12.253H20.6236C20.5329 11.7568 20.3175 11.3644 19.9774 11.0759C19.6486 10.7874 19.2347 10.6431 18.7359 10.6431Z" fill="#111518"/>
<path d="M25.8209 5H29.0522V17.8442H25.8209V5Z" fill="#111518"/>
<path d="M31.8325 5H35.0638V17.8442H31.8325V5Z" fill="#111518"/>
<g clip-path="url(#clip0_397_382)">
<path d="M52.0464 10.3704C51.877 9.97341 51.6432 9.5825 51.3013 9.13098C50.4394 7.99765 50.1764 5.47038 50.1735 5.44614C50.1618 5.32492 50.08 5.22492 49.9718 5.18856C49.8608 5.1522 49.741 5.18553 49.6621 5.27644C48.6336 6.47947 49.066 8.33704 49.2998 9.07947C49.3641 9.2825 49.4342 9.52189 49.4838 9.76432C49.8637 11.7249 49.1303 12.6128 48.9579 12.7916C48.7913 12.8401 48.6774 12.8158 48.5722 12.6977C48.2099 12.2825 48.0901 10.9219 48.2595 9.14917C48.2946 8.78856 48.2858 8.46432 48.2362 8.16129C47.8787 5.98241 46.5682 4.58477 46.2346 4.09462C45.3171 2.67644 45.2236 0.315833 45.2207 0.294621C45.2178 0.1825 45.1564 0.0825 45.06 0.0340151C44.9665 -0.0144697 44.8525 -0.0084091 44.7648 0.0552273C43.2337 1.14311 43.3652 3.76432 43.5785 5.22795C43.6282 5.56735 43.7246 5.9128 43.8912 6.34917C44.4843 7.90977 43.7743 9.92492 43.7684 9.94311C43.7626 9.96129 43.7568 9.97644 43.7538 9.99462C43.6633 10.4916 43.5113 10.7886 43.3418 10.7886C43.3243 10.7886 43.3068 10.7855 43.2863 10.7795C43.0789 10.734 42.9707 10.5037 42.9678 10.3037C42.9561 7.71886 40.4754 6.84917 40.4491 6.84008C40.338 6.80371 40.2153 6.83705 40.1393 6.93098C40.0605 7.02492 40.0458 7.15523 40.0984 7.26432C40.1277 7.32795 40.2212 7.60674 40.1569 8.59159C40.1014 9.47644 39.9465 10.3522 39.6981 11.1916C39.1079 13.2037 39.2014 15.1098 39.2072 15.2007C39.6611 20.3615 46.7588 21.2658 50.9711 18.3583C51.4328 18.0401 51.8097 17.6764 52.0873 17.2764C53.6419 15.034 52.7273 11.9886 52.0464 10.3704ZM41.2497 15.3007C41.2585 15.4673 41.1358 15.6098 40.9751 15.6189H40.9575C40.8027 15.6189 40.6741 15.4946 40.6653 15.334C40.639 14.8916 40.6449 14.428 40.677 13.9249C40.6887 13.7583 40.829 13.634 40.9897 13.6431C41.1504 13.6552 41.2731 13.8007 41.2614 13.9673C41.2292 14.4461 41.2234 14.8825 41.2497 15.3007ZM41.3929 12.6158C41.3753 12.7704 41.2497 12.8825 41.1036 12.8825C41.0919 12.8825 41.0802 12.8825 41.0656 12.8795C40.9078 12.8583 40.7939 12.7098 40.8114 12.5431L40.9517 11.3734C40.9721 11.2098 41.1153 11.0916 41.2789 11.1098C41.4396 11.131 41.5536 11.2825 41.5331 11.4492L41.3929 12.6158Z" fill="#FF6B09"/>
<path d="M50.07 4.14541C49.9107 4.11981 49.8014 3.96535 49.8259 3.80008C49.8442 3.67696 49.9498 3.04665 50.2363 2.72971C50.3465 2.6075 50.5312 2.60114 50.6493 2.71596C50.767 2.83032 50.773 3.02211 50.6626 3.14432C50.5413 3.27853 50.438 3.66262 50.4035 3.89244C50.3788 4.05596 50.2318 4.17072 50.07 4.14541Z" fill="#FF6B09"/>
<path d="M39.4171 5.6548C39.3612 5.42943 39.2222 5.05777 39.0889 4.93643C38.9674 4.82604 38.9553 4.63459 39.0617 4.50883C39.1679 4.38277 39.3524 4.36989 39.4741 4.48071C39.7889 4.76701 39.9534 5.38359 39.9833 5.50416C40.0232 5.66619 39.9291 5.83101 39.773 5.87274C39.6134 5.91434 39.4569 5.81413 39.4171 5.6548Z" fill="#FF6B09"/>
</g>
<path d="M66.3563 14.3771V17H56.9581V5H66.1389V7.62286H60.2358V9.64572H65.4366V12.1829H60.2358V14.3771H66.3563Z" fill="#111518"/>
<path d="M80 5V17H77.2742L72.1069 10.6057V17H68.8626V5H71.5884L76.7558 11.3943V5H80Z" fill="#111518"/>
<defs>
<clipPath id="clip0_397_382">
<rect width="14.0255" height="20" fill="white" transform="translate(38.9517)"/>
</clipPath>
</defs>
</svg>
